<svg xmlns="http://www.w3.org/2000/svg" version="1.1" xmlns:xlink="http://www.w3.org/1999/xlink" xmlns:svgjs="http://svgjs.com/svgjs" width="1440" height="560" preserveAspectRatio="none" viewBox="0 0 1440 560"><g mask="url(&quot;#SvgjsMask1071&quot;)" fill="none"><rect width="1440" height="560" x="0" y="0" fill="rgba(144, 219, 5, 1)"></rect><path d="M0,557.709C116.428,578.013,250.589,608.285,346.914,539.808C443.198,471.36,444.481,331.52,477.662,218.141C506.143,120.821,541.214,24.629,527.068,-75.781C512.898,-176.361,462.11,-266.102,398.307,-345.135C332.759,-426.33,252.542,-492.607,156.891,-534.321C51.757,-580.171,-62.005,-616.275,-174.719,-595.039C-292.846,-572.783,-423.795,-521.653,-478.485,-414.61C-532.971,-307.966,-455.899,-183.466,-445.974,-64.121C-438.64,24.071,-456.345,111.599,-427.761,195.352C-397.018,285.43,-349.615,369.484,-276.99,431.005C-197.917,497.988,-102.089,539.906,0,557.709" fill="#659904"></path><path d="M1440 1053.995C1542.904 1063.604 1651.103 1078.7939999999999 1742.933 1031.372 1838.187 982.182 1908.921 891.8009999999999 1947.656 791.8389999999999 1985.254 694.813 1982.5639999999999 586.19 1954.24 486.063 1928.0520000000001 393.488 1846.716 333.507 1795.0439999999999 252.353 1731.987 153.32 1728.281-5.45799999999997 1617.157-43.34100000000001 1507.181-80.832 1407.566 39.39300000000003 1300.126 83.632 1206.1109999999999 122.34300000000002 1100.687 132.495 1025.064 200.45600000000002 943.8910000000001 273.405 889.372 371.197 862.452 476.961 833.518 590.638 805.379 721.86 866.94 821.7080000000001 928.0419999999999 920.812 1063.469 934.264 1171.368 978 1259.393 1013.681 1345.429 1045.164 1440 1053.995" fill="#b1fa29"></path></g><defs><mask id="SvgjsMask1071"><rect width="1440" height="560" fill="#ffffff"></rect></mask></defs></svg>